<svg xmlns="http://www.w3.org/2000/svg" viewBox="0 0 128 128" role="img" aria-label="CyberSecElite logo">
  <defs>
    <linearGradient id="g" x1="0" y1="0" x2="1" y2="1">
      <stop offset="0%" stop-color="#00eaff"/>
      <stop offset="100%" stop-color="#ff3df4"/>
    </linearGradient>
  </defs>
  <rect width="128" height="128" rx="22" ry="22" fill="#0c1016"/>
  <g fill="none" stroke="url(#g)" stroke-width="4" stroke-linecap="round" opacity="0.95">
    <!-- Outer ring -->
    <path d="M64 20a44 44 0 1 1 0 88a44 44 0 1 1 0 -88"/>
    <!-- Cut arcs -->
    <path d="M24 64a40 40 0 0 1 18 -34" opacity="0.6"/>
    <path d="M86 22a40 40 0 0 1 18 34" opacity="0.6"/>
    <path d="M64 108a40 40 0 0 1 -34 -18" opacity="0.6"/>
    <!-- Stylized CSE monogram -->
    <path d="M46 64c0 -10 8 -18 18 -18" opacity="0.85"/>
    <path d="M46 64c0 10 8 18 18 18" opacity="0.85"/>
    <path d="M64 46h18m-18 36h18" opacity="0.85"/>
  </g>
</svg>
